<svg width="512" height="512" viewBox="0 0 512 512" fill="none" xmlns="http://www.w3.org/2000/svg">
<rect x="6" y="6" width="500" height="500" rx="150" fill="#D9D9D9"/>
<path d="M413.13 206.8C415.232 206.995 417.334 207.286 419.428 207.675L386.42 264.848C379.976 276.008 383.8 290.278 394.96 296.722C406.12 303.166 420.39 299.342 426.834 288.182L459.842 231.01C478.582 252.926 482.488 285.12 467.248 311.514C453.172 335.896 426.642 348.606 400.332 346.248L339.71 451.248C331.656 465.198 313.816 469.978 299.866 461.924C287.448 454.754 282.298 439.832 286.998 426.8C287.576 425.192 288.306 423.614 289.19 422.082L349.7 317.278C334.218 295.63 331.83 266.064 346.004 241.514C357.814 221.059 378.388 208.82 400.246 206.8C404.51 206.406 408.822 206.401 413.13 206.8ZM346 66.8C363.607 66.8 379.693 73.2998 391.995 84.0305L394.99 86.8H396V87.8102C407.42 99.4644 414.798 115.094 415.866 132.431L416 136.8V186.987C404.096 185.747 392.129 186.914 380.809 190.299L376 191.886V166.8H96V356.8C96 372.393 107.898 385.209 123.111 386.663L126 386.8H286.468L271.87 412.082C269.833 415.612 268.283 419.287 267.199 423.033L266.27 426.8H126C88.6287 426.8 58.0975 397.515 56.1036 360.641L56 356.8V136.8C56 119.194 62.4998 103.106 73.2305 90.8053L76 87.8102V86.8H77.0102C88.6644 75.3799 104.294 68.0016 121.631 66.9341L126 66.8H346ZM259.016 210.356C262.49 206.887 267.879 206.505 271.774 209.208L273.158 210.366L318.926 256.196C316.075 268.481 315.9 281.065 318.178 293.146L319.304 298.29L273.158 344.498C269.256 348.406 262.924 348.41 259.016 344.508C255.542 341.04 255.153 335.651 257.85 331.752L259.006 330.366L311.868 277.432L259.006 224.499C255.104 220.591 255.108 214.259 259.016 210.356ZM213.142 210.365C217.046 214.273 217.042 220.604 213.134 224.507L160.15 277.432L213.134 330.358C217.042 334.26 217.046 340.592 213.142 344.5C209.239 348.406 202.908 348.41 199 344.508L138.933 284.508C137.055 282.632 136 280.086 136 277.432C136 274.778 137.055 272.234 138.933 270.358L199 210.357C202.908 206.454 209.239 206.458 213.142 210.365Z" fill="#665234"/>
</svg>
